<?xml version="1.0" encoding="UTF-8" standalone="no"?>
<!-- Created with Inkscape (http://www.inkscape.org/) -->

<svg
   width="101.90466mm"
   height="101.90466mm"
   viewBox="0 0 101.90466 101.90466"
   version="1.1"
   id="svg1"
   xml:space="preserve"
   inkscape:version="1.3.2 (091e20ef0f, 2023-11-25)"
   sodipodi:docname="logoprueba.svg"
   xmlns:inkscape="http://www.inkscape.org/namespaces/inkscape"
   xmlns:sodipodi="http://sodipodi.sourceforge.net/DTD/sodipodi-0.dtd"
   xmlns:xlink="http://www.w3.org/1999/xlink"
   xmlns="http://www.w3.org/2000/svg"
   xmlns:svg="http://www.w3.org/2000/svg"><sodipodi:namedview
     id="namedview1"
     pagecolor="#505050"
     bordercolor="#ffffff"
     borderopacity="1"
     inkscape:showpageshadow="0"
     inkscape:pageopacity="0"
     inkscape:pagecheckerboard="1"
     inkscape:deskcolor="#505050"
     inkscape:document-units="mm"
     inkscape:lockguides="false"
     inkscape:zoom="0.20519156"
     inkscape:cx="360.63862"
     inkscape:cy="789.50616"
     inkscape:window-width="1360"
     inkscape:window-height="735"
     inkscape:window-x="0"
     inkscape:window-y="0"
     inkscape:window-maximized="1"
     inkscape:current-layer="layer8"
     showgrid="false"><inkscape:page
       x="-4.1060757e-06"
       y="7.4144818e-06"
       width="101.90466"
       height="101.90466"
       id="page3"
       margin="0"
       bleed="0" /></sodipodi:namedview><defs
     id="defs1"><linearGradient
       id="linearGradient66"
       inkscape:collect="always"><stop
         style="stop-color:#35d8cf;stop-opacity:0.34999999;"
         offset="0"
         id="stop65" /><stop
         style="stop-color:#35d8cf;stop-opacity:0.00004856;"
         offset="1"
         id="stop66" /></linearGradient><linearGradient
       id="linearGradient5"
       inkscape:collect="always"
       inkscape:label="circulo principal"><stop
         style="stop-color:#35d8cf;stop-opacity:1;"
         offset="0"
         id="stop5" /><stop
         style="stop-color:#248782;stop-opacity:0.5;"
         offset="1"
         id="stop6" /></linearGradient><radialGradient
       inkscape:collect="always"
       xlink:href="#linearGradient5"
       id="radialGradient6"
       cx="105"
       cy="148.5"
       fx="105"
       fy="148.5"
       r="49.442326"
       gradientUnits="userSpaceOnUse"
       gradientTransform="matrix(1.3866093,0.79270684,-0.5891468,1.0305406,46.894332,-87.769501)" /><radialGradient
       inkscape:collect="always"
       xlink:href="#linearGradient66"
       id="radialGradient7"
       gradientUnits="userSpaceOnUse"
       gradientTransform="matrix(0.79134921,0,0,0.79134921,21.90833,30.984636)"
       cx="105"
       cy="148.5"
       fx="105"
       fy="148.5"
       r="49.442326" /></defs><g
     id="g2"
     inkscape:label="hoja 1"
     transform="translate(-54.047675,-97.547673)"><g
       inkscape:label="circulo"
       inkscape:groupmode="layer"
       id="layer1"
       style="display:inline"><circle
         style="display:inline;opacity:1;fill:none;fill-opacity:1;stroke:#35d8cf;stroke-width:3.02001;stroke-opacity:1"
         id="circle66"
         cx="105"
         cy="148.5"
         r="49.442326"
         inkscape:label="linea prin" /><path
         id="path1"
         style="display:inline;opacity:1;fill:url(#radialGradient6);fill-opacity:1;stroke:none;stroke-width:3.02001;stroke-opacity:0.550736"
         inkscape:label="circulo prin"
         d="m 104.99979,99.05752 a 49.442326,49.442326 0 0 0 -49.441941,49.44246 49.442326,49.442326 0 0 0 49.441941,49.44246 49.442326,49.442326 0 0 0 49.44246,-49.44246 49.442326,49.442326 0 0 0 -49.44246,-49.44246 z m -1.37614,19.03708 v 5.2e-4 c 0.7563,-0.0305 1.52732,0.19158 2.17713,0.68523 1.48525,1.12834 1.77477,3.24727 0.64647,4.73252 -0.48843,0.64229 -1.19079,1.0885 -1.97972,1.25781 l 0.60771,3.37292 c 0.78982,-0.0658 1.57624,0.16238 2.20813,0.64079 0.43185,0.33167 0.77227,0.76734 0.98961,1.26659 l 0.59944,10e-4 9.29349,1.44901 c 0.243,-0.44572 0.70557,-0.75665 1.24954,-0.76895 0.72813,-0.0171 1.34032,0.50042 1.47174,1.19321 l 2.07171,0.32298 c -0.0844,-0.28226 -0.13411,-0.57602 -0.14211,-0.87437 -0.0439,-1.8647 1.43225,-3.4117 3.29696,-3.4556 1.86472,-0.0438 3.41222,1.43225 3.45612,3.29696 0.0439,1.86472 -1.43224,3.4117 -3.29696,3.4556 -0.80668,0.0186 -1.59365,-0.25202 -2.21795,-0.76326 l -2.25826,2.57814 c 0.54387,0.57651 0.85602,1.33314 0.87592,2.12545 0.01,0.54443 -0.11881,1.08252 -0.37363,1.56373 l 0.37259,0.46974 4.66173,8.16952 c 0.5,-0.0879 1.03112,0.0798 1.38028,0.49713 0.46734,0.55858 0.44422,1.35975 -0.0155,1.89446 l 1.03921,1.82108 c 0.16807,-0.24198 0.36714,-0.46333 0.59531,-0.65578 1.43056,-1.19691 3.56039,-1.0073 4.75734,0.42323 1.19692,1.43055 1.00729,3.56039 -0.42323,4.75733 -1.43055,1.19693 -3.56039,1.00729 -4.75734,-0.42323 -0.51749,-0.61911 -0.7969,-1.40285 -0.786,-2.20968 l -3.42356,-0.15813 c -0.11163,0.78467 -0.50865,1.50062 -1.11569,2.01021 -0.41944,0.34722 -0.92063,0.58242 -1.45573,0.68317 l -0.13436,0.58394 -3.4804,8.73797 c 0.38044,0.33611 0.58046,0.85588 0.4718,1.38906 -0.14529,0.71366 -0.78674,1.19544 -1.49138,1.16944 l -0.77566,1.94768 c 0.29397,-0.0195 0.59094,-0.002 0.88366,0.0563 1.82773,0.37217 3.00766,2.15548 2.6355,3.98322 -0.37218,1.82774 -2.15549,3.00766 -3.98322,2.6355 -1.82772,-0.37217 -3.00764,-2.1555 -2.6355,-3.98322 0.16138,-0.79061 0.60031,-1.49727 1.23765,-1.99213 l -2.01073,-2.77502 c -0.68309,0.40203 -1.49067,0.53719 -2.26756,0.38033 -0.53297,-0.11144 -1.02881,-0.35607 -1.44125,-0.71158 l -0.54054,0.2589 -9.00203,2.72645 c -0.0256,0.50704 -0.30713,0.98753 -0.791686,1.23506 -0.64856,0.33136 -1.424796,0.13099 -1.843815,-0.43614 l -2.006596,0.60771 c 0.19848,0.2177 0.370116,0.4608 0.506946,0.72605 0.848579,1.66103 0.18977,3.69528 -1.471229,4.54391 -1.661028,0.84858 -3.69529,0.18979 -4.543908,-1.47123 -0.848586,-1.66099 -0.190299,-3.69529 1.470711,-4.5439 0.718739,-0.36669 1.545294,-0.46417 2.329574,-0.27441 l 0.916223,-3.30264 c -0.740149,-0.28344 -1.349784,-0.8301 -1.711524,-1.5353 -0.245209,-0.4862 -0.362898,-1.02684 -0.342098,-1.57097 l -0.539502,-0.26096 -7.74423,-5.33766 c -0.412344,0.29617 -0.963667,0.3754 -1.459342,0.15089 -0.663447,-0.30048 -0.990905,-1.03287 -0.808736,-1.7141 l -1.725993,-1.1896 c -0.04646,0.29093 -0.129579,0.57667 -0.251664,0.84905 -0.769551,1.69899 -2.770915,2.45263 -4.470012,1.6831 -1.699086,-0.76956 -2.452625,-2.77092 -1.683101,-4.47001 0.769549,-1.6992 2.770915,-2.45264 4.470011,-1.6831 0.73487,0.33327 1.326451,0.91853 1.667082,1.65003 l 3.152779,-1.34256 c -0.239875,-0.75541 -0.191971,-1.57295 0.133842,-2.29547 0.227251,-0.49481 0.576042,-0.92394 1.014408,-1.24695 l -0.131775,-0.58446 -0.655257,-9.38289 c -0.488628,-0.13775 -0.894333,-0.51947 -1.027844,-1.04696 -0.178738,-0.70604 0.189437,-1.41835 0.835608,-1.70067 l -0.146244,-2.09135 c -0.256416,0.14506 -0.531054,0.2584 -0.820105,0.3328 -1.808208,0.45769 -3.645375,-0.63713 -4.103109,-2.44533 -0.457702,-1.80821 0.637136,-3.64538 2.445329,-4.10311 1.808206,-0.4577 3.644859,0.63714 4.102592,2.44533 0.197628,0.78233 0.108885,1.60978 -0.250631,2.33216 l 3.015837,1.6278 c 0.441039,-0.65853 1.109904,-1.1308 1.877921,-1.32653 0.52856,-0.13081 1.081288,-0.12533 1.607137,0.016 l 0.375171,-0.46767 6.927226,-6.36292 c -0.19697,-0.46789 -0.151413,-1.02297 0.177767,-1.45624 0.440569,-0.57997 1.226917,-0.73593 1.850537,-0.4067 l 1.54409,-1.418 c -0.27331,-0.11003 -0.53367,-0.25445 -0.77205,-0.43408 -1.48525,-1.12834 -1.774268,-3.24729 -0.64595,-4.73253 0.63469,-0.83546 1.58247,-1.2924 2.55488,-1.3317 z m -0.68471,6.64456 -1.48105,1.72857 c 0.32854,0.4722 0.36285,1.10807 0.0408,1.61851 l 1.59784,0.95446 c 0.27966,-0.2689 0.60563,-0.4849 0.96221,-0.63768 l -0.0765,-0.35709 -0.18913,-3.20756 c -0.28987,0.004 -0.57635,-0.0306 -0.85421,-0.0992 z m -1.58905,3.54913 c -0.44672,0.49501 -1.15984,0.61908 -1.737882,0.33383 l -6.235795,7.2776 c 0.249349,0.33412 0.430858,0.71364 0.535367,1.11724 0.3188,1.27231 -0.166616,2.61066 -1.227315,3.38222 l 2.614828,6.89157 c 0.06486,-0.024 0.130587,-0.0461 0.196887,-0.0656 1.638548,-0.41476 3.302823,0.57734 3.717602,2.21589 0.41481,1.63856 -0.577317,3.30332 -2.215885,3.71812 -1.638568,0.41476 -3.302853,-0.57731 -3.717603,-2.21589 -0.346789,-1.38503 0.309791,-2.82573 1.58285,-3.47214 l -3.588412,-6.48539 c -1.611692,0.24285 -3.150593,-0.75811 -3.581177,-2.33009 l -1.775085,0.36277 c 0.108696,0.65802 -0.23917,1.29267 -0.822689,1.56683 l 1.801957,9.41338 c 0.416701,0.0134 0.82645,0.10756 1.207162,0.2775 1.193488,0.544 1.937075,1.7582 1.878955,3.06855 l 7.018176,2.25257 c 0.0217,-0.0657 0.04573,-0.1304 0.07183,-0.1943 0.69735,-1.53963 2.510726,-2.22282 4.050399,-1.52549 1.5398,0.69732 2.22282,2.51069 1.52549,4.0504 -0.69736,1.53967 -2.51072,2.22285 -4.0504,1.52549 -1.299059,-0.59242 -2.015913,-2.00456 -1.727544,-3.4029 l -7.308081,-1.23765 c -0.814993,1.41149 -2.557044,1.99015 -4.054532,1.34669 l -0.823206,1.61386 c 0.582246,0.3253 0.861599,0.99342 0.712101,1.62057 l 8.482687,4.46071 c 0.270269,-0.31743 0.599737,-0.57932 0.969966,-0.77101 1.169459,-0.59392 2.582613,-0.41853 3.570842,0.4439 l 6.136577,-4.08244 c -0.0378,-0.0579 -0.0732,-0.11685 -0.10697,-0.17725 -0.76897,-1.50518 -0.17242,-3.34912 1.33273,-4.1181 1.50519,-0.76901 3.34909,-0.17193 4.1181,1.33325 0.76897,1.50519 0.17196,3.3486 -1.33325,4.11758 -1.27312,0.64627 -2.82377,0.3263 -3.73724,-0.77101 l -5.524213,4.94182 c 0.595399,1.51724 -0.0386,3.23999 -1.475362,4.00957 l 0.748791,1.65055 c 0.617369,-0.25241 1.313882,-0.0547 1.711004,0.4532 l 8.77621,-3.85093 c -0.0807,-0.40923 -0.08,-0.83022 10e-4,-1.2392 0.26481,-1.28462 1.28307,-2.27964 2.57349,-2.51457 l 0.63407,-7.34322 c -0.0688,-0.007 -0.13695,-0.016 -0.20515,-0.0269 -1.65624,-0.33726 -2.72573,-1.95335 -2.38849,-3.6096 0.33721,-1.65625 1.95332,-2.72571 3.6096,-2.38848 1.65624,0.33726 2.72573,1.95332 2.38848,3.6096 -0.28851,1.39832 -1.5057,2.41119 -2.93315,2.44119 l 0.41961,7.40007 c 1.55746,0.48049 2.50895,2.05039 2.21485,3.65352 l 1.757,0.44339 c 0.18759,-0.64006 0.77638,-1.05972 1.42111,-1.05472 l 2.46134,-9.263 c -0.36962,-0.19287 -0.69863,-0.45583 -0.9679,-0.77411 -0.83927,-1.00798 -0.98211,-2.42427 -0.36121,-3.57963 l -5.34593,-5.07463 c -0.0481,0.0496 -0.0975,0.098 -0.14883,0.14418 -1.2963,1.08462 -3.22672,0.91289 -4.31136,-0.38344 -1.08467,-1.2963 -0.91289,-3.22617 0.38344,-4.31085 1.29632,-1.08462 3.2262,-0.91341 4.31084,0.38293 0.91327,1.09739 0.94664,2.68053 0.0801,3.81527 l 6.04718,4.28604 c 1.34672,-0.91809 3.16747,-0.68326 4.23747,0.54622 l 1.44228,-1.09709 c -0.38335,-0.54573 -0.34534,-1.2687 0.0615,-1.76888 l -5.70766,-7.69928 c -0.38124,0.16875 -0.79145,0.26107 -1.2082,0.27337 -1.31133,0.0277 -2.50845,-0.74344 -3.02462,-1.94923 l -7.30033,1.01544 c 0.009,0.0686 0.0146,0.13771 0.0196,0.20671 0.0397,1.68975 -1.29767,3.09179 -2.98742,3.13159 -1.68977,0.0398 -3.09179,-1.29815 -3.13159,-2.98793 -0.0397,-1.6898 1.29763,-3.0918 2.98742,-3.1316 1.42744,-0.0299 2.68599,0.93167 3.03289,2.31666 l 7.12153,-2.05569 c 0.12185,-1.62533 1.44014,-2.90233 3.06854,-2.97243 l 0.0413,-1.81177 c -0.66574,-0.0404 -1.2072,-0.5209 -1.34462,-1.15084 l -9.57822,-0.33848 c -0.10578,0.40328 -0.28911,0.78235 -0.53951,1.1157 -0.79595,1.04244 -2.14506,1.497 -3.40961,1.14876 l -3.75739,6.34122 c 0.0591,0.0357 0.11693,0.0735 0.17363,0.11317 1.34588,1.02247 1.60794,2.94273 0.5855,4.28863 -1.02245,1.34593 -2.942692,1.60795 -4.288631,0.58549 -1.345909,-1.02249 -1.607993,-2.94223 -0.585494,-4.28811 0.866629,-1.13469 2.402986,-1.51939 3.702095,-0.92708 l 2.83291,-6.84971 c -1.19475,-1.10865 -1.37137,-2.93568 -0.41083,-4.25245 l -1.3901,-1.16169 z m 19.50113,4.32429 c -0.16433,0.55129 -0.63987,0.97529 -1.23972,1.04179 l 0.25012,1.84382 c 0.3846,0.051 0.75684,0.17095 1.09864,0.3545 l 0.23151,-0.28215 2.38952,-2.14768 c -0.18382,-0.22417 -0.33571,-0.46968 -0.45527,-0.72967 z m -36.106839,2.34404 c -0.177652,0.22908 -0.383462,0.4322 -0.610298,0.60668 l 0.427881,2.23552 c 0.574019,0.0375 1.092572,0.40667 1.290877,0.97669 l 1.742529,-0.65371 c -0.03587,-0.38631 -0.0016,-0.77626 0.101286,-1.15032 l -0.326595,-0.16278 z m 41.807269,16.33027 -1.28623,1.34514 c 0.19991,0.33248 0.33823,0.69838 0.40773,1.08003 l 0.36483,0.005 3.16932,0.52968 c 0.0607,-0.28351 0.1581,-0.5557 0.2868,-0.81132 l -1.35547,-1.82883 c -0.53346,0.21522 -1.16098,0.10818 -1.58698,-0.31936 z m -42.357623,3.81992 -0.330729,0.154 -3.085083,0.89813 c 0.06832,0.28172 0.09843,0.56911 0.09353,0.85525 l 2.014865,1.05937 c 0.387248,-0.42529 0.999073,-0.60087 1.568379,-0.4005 l 0.575159,-1.76991 c -0.324383,-0.21283 -0.607802,-0.48268 -0.836125,-0.79634 z m 31.045133,12.43283 c -0.1353,0.36359 -0.33516,0.6998 -0.59014,0.99219 l 0.22375,0.28836 1.56218,2.80758 c 0.25944,-0.12931 0.53281,-0.22274 0.81287,-0.28164 l 0.58446,-2.19987 c -0.50086,-0.28291 -0.80809,-0.84061 -0.73949,-1.44022 z m -17.9064,1.45573 c -0.368629,0.12081 -0.75601,0.1741 -1.143599,0.1571 l -0.0863,0.3545 -1.221114,2.97191 c 0.26288,0.12222 0.506498,0.27762 0.727087,0.45992 l 2.084111,-0.91416 c -0.09115,-0.56799 0.153456,-1.15622 0.665076,-1.47639 z" /><circle
         style="display:inline;opacity:1;fill:url(#radialGradient7);fill-opacity:1;stroke:none;stroke-width:2.38988;stroke-opacity:0.600274"
         id="circle6"
         cx="105"
         cy="148.5"
         r="39.126144" /></g></g></svg>
